#!OML:ASF H:\LiuWeirdWalks\Patient Classification 1\Patient 1\Session 1\male.ASF
:FULLY-SPECIFIED
:DEGREES
398
root 1.44913 17.916 -6.80769 0.860566 5.76078 6.18157
lowerback 4.25254 -1.36342 -8.26279
upperback -1.6047 -2.27437 0.812406
thorax -3.71574 -0.920773 5.65373
lowerneck -18.9933 1.04075 4.71915
upperneck 25.903 1.69245 -5.90928
head 11.7113 0.464715 -2.73934
rclavicle 4.8081e-015 -2.38542e-015
rhumerus -42.9271 -12.0888 -68.0872
rradius 30.4238
rwrist -4.97168
rhand -15.072 -2.88902
rfingers 7.12502
rthumb 11.0953 -32.5757
lclavicle 4.8081e-015 -2.38542e-015
lhumerus -42.2329 2.47806 79.1721
lradius 37.7531
lwrist 7.01145
lhand -10.6734 0.217665
lfingers 7.12502
lthumb 15.3351 29.629
rfemur -28.92 -2.23818 13.8137
rtibia 24.5779
rfoot -11.6541 -19.1824
rtoes -12.6759
lfemur 17.3526 -4.42468 -29.4981
ltibia 7.21179
lfoot -4.65789 5.47453
ltoes -22.1893
399
root 1.437 17.9134 -6.65074 0.888028 5.82136 6.11373
lowerback 4.15158 -1.39419 -8.26686
upperback -1.65504 -2.30764 0.837214
thorax -3.70506 -0.935855 5.68151
lowerneck -18.9637 1.03032 4.70506
upperneck 25.9818 1.6847 -5.903
head 11.7351 0.461048 -2.7376
rclavicle 1.68843e-014 3.18055e-015
rhumerus -43.03 -12.2078 -67.9383
rradius 30.2851
rwrist -4.84619
rhand -15.0667 -2.87438
rfingers 7.12502
rthumb 11.1004 -32.5608
lclavicle 1.68843e-014 3.18055e-015
lhumerus -42.3723 2.51118 79.1441
lradius 37.6729
lwrist 6.95155
lhand -10.6918 0.152883
lfingers 7.12502
lthumb 15.3174 29.5656
rfemur -28.5168 -2.1767 13.9717
rtibia 24.9289
rfoot -11.376 -18.7041
rtoes -12.659
lfemur 17.3863 -4.50627 -29.3113
ltibia 8.04081
lfoot -4.53403 5.25997
ltoes -23.0259
400
root 1.42351 17.9153 -6.49163 0.929841 5.88186 5.98054
lowerback 4.03711 -1.42438 -8.21766
upperback -1.72654 -2.33611 0.880532
thorax -3.71064 -0.948227 5.69833
lowerneck -18.9182 1.02683 4.70443
upperneck 26.0403 1.68354 -5.90074
head 11.7484 0.461402 -2.73802
rclavicle -1.22874e-014 -2.8625e-014
rhumerus -43.1679 -12.3284 -67.7736
rradius 30.1461
rwrist -4.72933
rhand -15.0752 -2.85895
rfingers 7.12502
rthumb 11.0922 -32.5458
lclavicle -1.22874e-014 -2.8625e-014
lhumerus -42.5113 2.53826 79.1148
lradius 37.5561
lwrist 6.88936
lhand -10.7024 0.126066
lfingers 7.12502
lthumb 15.3072 29.5396
rfemur -28.1412 -2.07595 14.2041
rtibia 25.1989
rfoot -10.936 -18.3064
rtoes -12.5494
lfemur 17.3995 -4.59427 -29.039
ltibia 8.8503
lfoot -4.33625 4.98351
ltoes -23.8839
401
root 1.4095 17.9223 -6.33051 0.98146 5.94206 5.80042
lowerback 3.90785 -1.45569 -8.12517
upperback -1.80691 -2.36226 0.939002
thorax -3.71832 -0.959996 5.70609
lowerneck -18.8565 1.01984 4.70384
upperneck 26.1013 1.67545 -5.8895
head 11.7589 0.46003 -2.73609
rclavicle 3.97569e-015 -3.26007e-014
rhumerus -43.3183 -12.4392 -67.6048
rradius 30.0135
rwrist -4.62465
rhand -15.0974 -2.85889
rfingers 7.12502
rthumb 11.0708 -32.5469
lclavicle 3.97569e-015 -3.26007e-014
lhumerus -42.6574 2.56472 79.0876
lradius 37.4376
lwrist 6.84452
lhand -10.7045 0.132746
lfingers 7.12502
lthumb 15.3052 29.5464
rfemur -27.8046 -1.98053 14.493
rtibia 25.3899
rfoot -10.3031 -17.9624
rtoes -12.445
lfemur 17.3869 -4.68588 -28.7061
ltibia 9.65448
lfoot -4.05528 4.63865
ltoes -24.7859
402
root 1.39516 17.9342 -6.1677 1.03079 5.97784 5.55351
lowerback 3.76441 -1.47815 -7.96637
upperback -1.88796 -2.37137 1.01395
thorax -3.72283 -0.964941 5.69216
lowerneck -18.8266 1.01621 4.69574
upperneck 26.2121 1.66983 -5.85957
head 11.7951 0.461075 -2.72695
rclavicle -2.3792e-014 -1.11319e-014
rhumerus -43.4776 -12.5442 -67.4359
rradius 29.8862
rwrist -4.54491
rhand -15.127 -2.84591
rfingers 7.12502
rthumb 11.0422 -32.5355
lclavicle -2.3792e-014 -1.11319e-014
lhumerus -42.7795 2.6077 79.0524
lradius 37.274
lwrist 6.78659
lhand -10.7123 0.130965
lfingers 7.12502
lthumb 15.2976 29.5452
rfemur -27.5045 -1.86443 14.8534
rtibia 25.5112
rfoot -9.44911 -17.6436
rtoes -12.3144
lfemur 17.332 -4.75507 -28.2919
ltibia 10.4965
lfoot -3.70675 4.2239
ltoes -25.7294
403
root 1.38074 17.9495 -6.00406 1.07251 5.99758 5.24859
lowerback 3.62315 -1.49798 -7.75085
upperback -1.9698 -2.37391 1.10741
thorax -3.7315 -0.967708 5.6653
lowerneck -18.7765 1.01196 4.68941
upperneck 26.3299 1.66345 -5.82863
head 11.8299 0.462375 -2.71788
rclavicle -7.25564e-015 -5.56597e-015
rhumerus -43.6305 -12.631 -67.2726
rradius 29.762
rwrist -4.4886
rhand -15.1667 -2.84439
rfingers 7.12502
rthumb 11.004 -32.536
lclavicle -7.25564e-015 -5.56597e-015
lhumerus -42.8929 2.67952 79.0087
lradius 37.0898
lwrist 6.71254
lhand -10.7233 0.116168
lfingers 7.12502
lthumb 15.287 29.5312
rfemur -27.2283 -1.74276 15.2722
rtibia 25.5887
rfoot -8.44548 -17.3212
rtoes -12.2327
lfemur 17.2201 -4.91337 -27.8422
ltibia 11.4228
lfoot -3.25493 3.84404
ltoes -26.7329
404
root 1.36682 17.9661 -5.83962 1.09526 5.98575 4.90052
lowerback 3.48856 -1.5055 -7.48037
upperback -2.04584 -2.35776 1.20702
thorax -3.74221 -0.962712 5.61288
lowerneck -18.7452 1.01647 4.69971
upperneck 26.4602 1.66652 -5.8063
head 11.8743 0.468295 -2.7139
rclavicle -9.98893e-015 -7.95139e-015
rhumerus -43.772 -12.7408 -67.1038
rradius 29.6191
rwrist -4.41925
rhand -15.2093 -2.83151
rfingers 7.12502
rthumb 10.9629 -32.5253
lclavicle -9.98893e-015 -7.95139e-015
lhumerus -42.9919 2.77225 78.9502
lradius 36.8796
lwrist 6.62153
lhand -10.7435 0.0707487
lfingers 7.12502
lthumb 15.2676 29.4873
rfemur -26.9471 -1.60969 15.7304
rtibia 25.6519
rfoot -7.35346 -16.964
rtoes -12.1422
lfemur 17.0396 -5.07134 -27.3564
ltibia 12.4814
lfoot -2.74743 3.44409
ltoes -27.7418
405
root 1.35322 17.9825 -5.6745 1.09093 5.93939 4.51391
lowerback 3.36061 -1.50486 -7.16662
upperback -2.10745 -2.32883 1.31567
thorax -3.74436 -0.953286 5.54462
lowerneck -18.6626 1.01867 4.70669
upperneck 26.5329 1.6662 -5.78101
head 11.8856 0.473345 -2.70692
rclavicle 8.4732e-015 9.54166e-015
rhumerus -43.8844 -12.8745 -66.9292
rradius 29.449
rwrist -4.30731
rhand -15.2443 -2.81713
rfingers 7.12502
rthumb 10.9291 -32.5127
lclavicle 8.4732e-015 9.54166e-015
lhumerus -43.0739 2.90025 78.8778
lradius 36.6505
lwrist 6.53402
lhand -10.7804 0.0209708
lfingers 7.12502
lthumb 15.232 29.4402
rfemur -26.638 -1.47487 16.2325
rtibia 25.7355
rfoot -6.26552 -16.5811
rtoes -11.9788
lfemur 16.7924 -5.22369 -26.8416
ltibia 13.6915
lfoot -2.183 3.03357
ltoes -28.7556
406
root 1.33973 17.9976 -5.50936 1.06549 5.86058 4.1332
lowerback 3.2474 -1.49292 -6.85557
upperback -2.1661 -2.28689 1.41739
thorax -3.75366 -0.937282 5.47034
lowerneck -18.5811 1.03126 4.76072
upperneck 26.5859 1.67744 -5.79805
head 11.8911 0.482865 -2.72175
rclavicle -4.08999e-014 -3.02153e-014
rhumerus -43.9846 -13.0508 -66.7359
rradius 29.235
rwrist -4.14694
rhand -15.2801 -2.80482
rfingers 7.12502
rthumb 10.8945 -32.5022
lclavicle -4.08999e-014 -3.02153e-014
lhumerus -43.1711 3.02988 78.7944
lradius 36.4233
lwrist 6.4511
lhand -10.8174 -0.0457275
lfingers 7.12502
lthumb 15.1964 29.3762
rfemur -26.301 -1.3582 16.7375
rtibia 25.8692
rfoot -5.27597 -16.1833
rtoes -11.6684
lfemur 16.4728 -5.35839 -26.3418
ltibia 15.0515
lfoot -1.55268 2.60467
ltoes -29.7591
407
root 1.32616 18.0109 -5.34398 1.01746 5.73913 3.7757
lowerback 3.14589 -1.46477 -6.56332
upperback -2.2087 -2.22561 1.50708
thorax -3.75511 -0.912145 5.39306
lowerneck -18.5362 1.03484 4.80745
upperneck 26.6673 1.6734 -5.80085
head 11.9139 0.486196 -2.7333
rclavicle 1.65737e-014 7.95139e-015
rhumerus -44.069 -13.262 -66.5388
rradius 29.0134
rwrist -3.95542
rhand -15.2905 -2.82021
rfingers 7.12502
rthumb 10.8845 -32.5181
lclavicle 1.65737e-014 7.95139e-015
lhumerus -43.2812 3.16228 78.7028
lradius 36.2444
lwrist 6.37276
lhand -10.8264 -0.0948169
lfingers 7.12502
lthumb 15.1877 29.3278
rfemur -25.944 -1.25229 17.2301
rtibia 26.0816
rfoot -4.48882 -15.7844
rtoes -11.173
lfemur 16.0928 -5.46042 -25.8731
ltibia 16.5372
lfoot -0.837515 2.14876
ltoes -30.6829
408
root 1.3119 18.0219 -5.17884 0.949061 5.58178 3.45919
lowerback 3.07357 -1.42279 -6.31807
upperback -2.247 -2.1509 1.58469
thorax -3.76913 -0.878892 5.33001
lowerneck -18.4994 1.04458 4.85511
upperneck 26.738 1.67831 -5.80727
head 11.9348 0.493084 -2.74478
rclavicle 2.59166e-014 -1.90833e-014
rhumerus -44.1555 -13.4823 -66.3357
rradius 28.7932
rwrist -3.75048
rhand -15.2905 -2.85151
rfingers 7.12502
rthumb 10.8845 -32.5494
lclavicle 2.59166e-014 -1.90833e-014
lhumerus -43.4017 3.29718 78.6073
lradius 36.0886
lwrist 6.30397
lhand -10.7974 -0.109422
lfingers 7.12502
lthumb 15.2157 29.3111
rfemur -25.5787 -1.13625 17.6896
rtibia 26.3893
rfoot -3.9433 -15.4334
rtoes -10.4909
lfemur 15.6599 -5.51571 -25.4438
ltibia 18.1188
lfoot -0.0229339 1.64212
ltoes -31.5695
409
root 1.29732 18.0306 -5.01423 0.863616 5.40799 3.24239
lowerback 3.0273 -1.37515 -6.18249
upperback -2.27391 -2.0764 1.6393
thorax -3.78329 -0.843428 5.30563
lowerneck -18.4832 1.04989 4.89548
upperneck 26.8068 1.67811 -5.81344
head 11.9587 0.496682 -2.75582
rclavicle 3.44146e-014 -2.38542e-015
rhumerus -44.2334 -13.6729 -66.1479
rradius 28.6001
rwrist -3.57151
rhand -15.2673 -2.89818
rfingers 7.12502
rthumb 10.9069 -32.5949
lclavicle 3.44146e-014 -2.38542e-015
lhumerus -43.5491 3.42838 78.5166
lradius 35.9968
lwrist 6.26909
lhand -10.7279 -0.0804366
lfingers 7.12502
lthumb 15.2826 29.335
rfemur -25.2096 -1.03513 18.0481
rtibia 26.7924
rfoot -3.65274 -15.1038
rtoes -9.67901
lfemur 15.1801 -5.53196 -25.1166
ltibia 19.774
lfoot 0.942939 1.06596
ltoes -32.3344
410
root 1.28273 18.0372 -4.85051 0.757136 5.22032 3.11268
lowerback 3.02079 -1.31981 -6.13187
upperback -2.2909 -1.99895 1.66834
thorax -3.80839 -0.804394 5.30357
lowerneck -18.495 1.05326 4.89872
upperneck 26.9184 1.67765 -5.78655
head 12.0045 0.500377 -2.74929
rclavicle -2.01269e-015 -1.82882e-014
rhumerus -44.3086 -13.8273 -65.99
rradius 28.4521
rwrist -3.45198
rhand -15.2327 -2.95497
rfingers 7.12502
rthumb 10.9403 -32.6499
lclavicle -2.01269e-015 -1.82882e-014
lhumerus -43.7108 3.53226 78.4366
lradius 35.9566
lwrist 6.27339
lhand -10.6327 -0.0269799
lfingers 7.12502
lthumb 15.3743 29.3814
rfemur -24.8346 -0.922745 18.3115
rtibia 27.276
rfoot -3.59552 -14.7855
rtoes -8.73321
lfemur 14.6572 -5.49621 -24.8723
ltibia 21.4862
lfoot 2.09171 0.403619
ltoes -32.9641
411
root 1.26772 18.0419 -4.6878 0.623652 5.04579 3.04536
lowerback 3.05901 -1.26788 -6.14775
upperback -2.29532 -1.9324 1.67977
thorax -3.84303 -0.769192 5.32248
lowerneck -18.5308 1.03323 4.81951
upperneck 27.0749 1.6488 -5.68711
head 12.0698 0.492042 -2.70672
rclavicle 1.16786e-015 0
rhumerus -44.3799 -13.9303 -65.8736
rradius 28.3517
rwrist -3.39546
rhand -15.1987 -3.02178
rfingers 7.12502
rthumb 10.9731 -32.715
lclavicle 1.16786e-015 0
lhumerus -43.8876 3.59689 78.3704
lradius 35.9777
lwrist 6.31873
lhand -10.5264 0.0271332
lfingers 7.12502
lthumb 15.4766 29.4276
rfemur -24.4356 -0.783958 18.5025
rtibia 27.8079
rfoot -3.70985 -14.511
rtoes -7.72251
lfemur 14.0918 -5.41092 -24.6707
ltibia 23.25
lfoot 3.46616 -0.366504
ltoes -33.389
412
root 1.25266 18.0453 -4.52638 0.464767 4.89193 3.01639
lowerback 3.13506 -1.22104 -6.19691
upperback -2.28653 -1.8769 1.67728
thorax -3.88348 -0.738889 5.34712
lowerneck -18.5671 1.01642 4.74698
upperneck 27.1905 1.62356 -5.59713
head 12.1197 0.484699 -2.66719
rclavicle -1.3244e-014 7.95139e-016
rhumerus -44.4347 -13.9987 -65.7954
rradius 28.283
rwrist -3.38594
rhand -15.1622 -3.03693
rfingers 7.12502
rthumb 11.0083 -32.7283
lclavicle -1.3244e-014 7.95139e-016
lhumerus -44.0558 3.61885 78.3189
lradius 36.0269
lwrist 6.39235
lhand -10.433 0.079339
lfingers 7.12502
lthumb 15.5667 29.4729
rfemur -23.9956 -0.612429 18.6452
rtibia 28.3384
rfoot -3.91649 -14.3032
rtoes -6.63865
lfemur 13.4727 -5.28773 -24.4881
ltibia 25.0741
lfoot 5.098 -1.22013
ltoes -33.5063
